<svg width="704" height="226" viewBox="0 0 704 226" fill="none" xmlns="http://www.w3.org/2000/svg">
<path d="M307.562 143.125V160H259.062V143.125H307.562ZM266.875 69V160H244.938V69H266.875ZM301.312 105.125V121.438H259.062V105.125H301.312ZM307.75 69V85.9375H259.062V69H307.75Z" fill="black"/>
<path d="M336.25 106.812V160H315.188V92.375H334.938L336.25 106.812ZM333.75 123.875L328.812 124C328.812 118.833 329.438 114.229 330.688 110.188C331.938 106.104 333.708 102.646 336 99.8125C338.292 96.9792 341.021 94.8333 344.188 93.375C347.396 91.875 350.958 91.125 354.875 91.125C358 91.125 360.854 91.5833 363.438 92.5C366.062 93.4167 368.312 94.8958 370.188 96.9375C372.104 98.9792 373.562 101.688 374.562 105.062C375.604 108.396 376.125 112.521 376.125 117.438V160H354.938V117.375C354.938 114.667 354.562 112.604 353.812 111.188C353.062 109.729 351.979 108.729 350.562 108.188C349.146 107.646 347.417 107.375 345.375 107.375C343.208 107.375 341.375 107.792 339.875 108.625C338.375 109.458 337.167 110.625 336.25 112.125C335.375 113.583 334.729 115.312 334.312 117.312C333.938 119.312 333.75 121.5 333.75 123.875Z" fill="black"/>
<path d="M426.688 144.5V64H447.875V160H428.875L426.688 144.5ZM385.188 127V125.688C385.188 120.562 385.75 115.896 386.875 111.688C388 107.438 389.667 103.792 391.875 100.75C394.083 97.6667 396.833 95.2917 400.125 93.625C403.417 91.9583 407.208 91.125 411.5 91.125C415.333 91.125 418.688 92.0208 421.562 93.8125C424.438 95.5625 426.896 98.0208 428.938 101.188C430.979 104.354 432.646 108.062 433.938 112.312C435.229 116.521 436.208 121.062 436.875 125.938V127.5C436.208 132.083 435.229 136.417 433.938 140.5C432.646 144.542 430.979 148.125 428.938 151.25C426.896 154.375 424.417 156.833 421.5 158.625C418.625 160.375 415.25 161.25 411.375 161.25C407.083 161.25 403.292 160.396 400 158.688C396.75 156.979 394.021 154.583 391.812 151.5C389.646 148.417 388 144.792 386.875 140.625C385.75 136.458 385.188 131.917 385.188 127ZM406.25 125.688V127C406.25 129.542 406.417 131.896 406.75 134.062C407.083 136.229 407.646 138.146 408.438 139.812C409.271 141.438 410.354 142.708 411.688 143.625C413.062 144.542 414.75 145 416.75 145C419.458 145 421.688 144.354 423.438 143.062C425.229 141.771 426.542 139.938 427.375 137.562C428.25 135.188 428.625 132.396 428.5 129.188V124.25C428.583 121.5 428.396 119.083 427.938 117C427.479 114.875 426.75 113.104 425.75 111.688C424.792 110.271 423.562 109.208 422.062 108.5C420.604 107.75 418.875 107.375 416.875 107.375C414.917 107.375 413.25 107.833 411.875 108.75C410.542 109.667 409.458 110.958 408.625 112.625C407.792 114.25 407.188 116.188 406.812 118.438C406.438 120.646 406.25 123.062 406.25 125.688Z" fill="black"/>
<path d="M481.062 105.375V186H460V92.375H479.625L481.062 105.375ZM522.562 125.375V126.688C522.562 131.604 522 136.167 520.875 140.375C519.75 144.583 518.083 148.25 515.875 151.375C513.667 154.5 510.917 156.938 507.625 158.688C504.375 160.396 500.604 161.25 496.313 161.25C492.271 161.25 488.792 160.354 485.875 158.562C482.958 156.771 480.521 154.292 478.562 151.125C476.604 147.958 475.021 144.333 473.812 140.25C472.604 136.167 471.646 131.854 470.938 127.312V125.625C471.646 120.75 472.604 116.229 473.812 112.062C475.021 107.854 476.604 104.188 478.562 101.062C480.521 97.9375 482.938 95.5 485.812 93.75C488.729 92 492.208 91.125 496.25 91.125C500.542 91.125 504.312 91.9375 507.562 93.5625C510.854 95.1875 513.604 97.5208 515.812 100.562C518.062 103.562 519.75 107.167 520.875 111.375C522 115.583 522.562 120.25 522.562 125.375ZM501.5 126.688V125.375C501.5 122.75 501.312 120.354 500.938 118.188C500.562 115.979 499.958 114.062 499.125 112.438C498.333 110.812 497.271 109.562 495.938 108.688C494.604 107.812 492.958 107.375 491 107.375C488.75 107.375 486.854 107.729 485.312 108.438C483.812 109.104 482.604 110.146 481.688 111.562C480.812 112.938 480.188 114.667 479.812 116.75C479.479 118.792 479.333 121.188 479.375 123.938V129.062C479.292 132.229 479.604 135.021 480.312 137.438C481.021 139.812 482.25 141.667 484 143C485.75 144.333 488.125 145 491.125 145C493.125 145 494.792 144.542 496.125 143.625C497.458 142.667 498.521 141.354 499.313 139.688C500.104 137.979 500.667 136.021 501 133.812C501.333 131.604 501.5 129.229 501.5 126.688Z" fill="black"/>
<path d="M567.062 143V115.125C567.062 113.208 566.792 111.562 566.25 110.188C565.708 108.812 564.854 107.75 563.688 107C562.521 106.208 560.958 105.812 559 105.812C557.417 105.812 556.062 106.083 554.938 106.625C553.812 107.167 552.958 107.979 552.375 109.062C551.792 110.146 551.5 111.521 551.5 113.188H530.438C530.438 110.062 531.125 107.167 532.5 104.5C533.917 101.792 535.917 99.4375 538.5 97.4375C541.125 95.4375 544.25 93.8958 547.875 92.8125C551.542 91.6875 555.625 91.125 560.125 91.125C565.5 91.125 570.292 92.0208 574.5 93.8125C578.75 95.6042 582.104 98.2917 584.562 101.875C587.021 105.417 588.25 109.875 588.25 115.25V142.938C588.25 147.354 588.5 150.708 589 153C589.5 155.25 590.208 157.229 591.125 158.938V160H570C569 157.917 568.25 155.375 567.75 152.375C567.292 149.333 567.062 146.208 567.062 143ZM569.625 118.688L569.75 129.938H560.438C558.479 129.938 556.812 130.208 555.438 130.75C554.104 131.292 553.021 132.042 552.188 133C551.396 133.917 550.812 134.958 550.438 136.125C550.104 137.292 549.938 138.521 549.938 139.812C549.938 141.062 550.229 142.188 550.812 143.188C551.438 144.146 552.271 144.896 553.312 145.438C554.354 145.979 555.521 146.25 556.812 146.25C559.146 146.25 561.125 145.812 562.75 144.938C564.417 144.021 565.688 142.917 566.562 141.625C567.438 140.333 567.875 139.125 567.875 138L572.5 146.625C571.667 148.292 570.708 149.979 569.625 151.688C568.583 153.396 567.271 154.979 565.688 156.438C564.146 157.854 562.25 159.021 560 159.938C557.75 160.812 555.021 161.25 551.812 161.25C547.646 161.25 543.812 160.396 540.312 158.688C536.854 156.979 534.083 154.604 532 151.562C529.917 148.479 528.875 144.938 528.875 140.938C528.875 137.438 529.5 134.312 530.75 131.562C532.042 128.812 533.979 126.479 536.562 124.562C539.146 122.646 542.438 121.188 546.438 120.188C550.438 119.188 555.146 118.688 560.562 118.688H569.625Z" fill="black"/>
<path d="M628.5 145C630.458 145 632.125 144.646 633.5 143.938C634.917 143.188 635.979 142.146 636.688 140.812C637.438 139.438 637.792 137.792 637.75 135.875H657.562C657.604 140.958 656.354 145.417 653.812 149.25C651.312 153.042 647.896 156 643.562 158.125C639.271 160.208 634.417 161.25 629 161.25C623.708 161.25 619.083 160.396 615.125 158.688C611.167 156.938 607.854 154.521 605.188 151.438C602.562 148.312 600.583 144.667 599.25 140.5C597.958 136.333 597.312 131.812 597.312 126.938V125.5C597.312 120.625 597.958 116.104 599.25 111.938C600.583 107.729 602.562 104.083 605.188 101C607.854 97.875 611.146 95.4583 615.062 93.75C619.021 92 623.625 91.125 628.875 91.125C634.5 91.125 639.458 92.1875 643.75 94.3125C648.083 96.4375 651.479 99.5208 653.938 103.562C656.396 107.604 657.604 112.5 657.562 118.25H637.75C637.792 116.208 637.479 114.375 636.812 112.75C636.146 111.125 635.104 109.833 633.688 108.875C632.312 107.875 630.542 107.375 628.375 107.375C626.208 107.375 624.458 107.854 623.125 108.812C621.792 109.771 620.771 111.104 620.062 112.812C619.396 114.479 618.938 116.396 618.688 118.562C618.479 120.729 618.375 123.042 618.375 125.5V126.938C618.375 129.438 618.479 131.792 618.688 134C618.938 136.167 619.417 138.083 620.125 139.75C620.833 141.375 621.854 142.667 623.188 143.625C624.521 144.542 626.292 145 628.5 145Z" fill="black"/>
<path d="M702.188 92.375V107H661.438V92.375H702.188ZM670 75.5625H691.062V137.938C691.062 139.729 691.271 141.125 691.688 142.125C692.104 143.083 692.812 143.771 693.812 144.188C694.854 144.562 696.229 144.75 697.938 144.75C699.146 144.75 700.146 144.729 700.938 144.688C701.729 144.604 702.479 144.5 703.188 144.375V159.438C701.396 160.021 699.521 160.458 697.562 160.75C695.604 161.083 693.521 161.25 691.312 161.25C686.812 161.25 682.958 160.542 679.75 159.125C676.583 157.708 674.167 155.479 672.5 152.438C670.833 149.396 670 145.438 670 140.562V75.5625Z" fill="black"/>
<path fill-rule="evenodd" clip-rule="evenodd" d="M110 226C95.0884 226 83.0001 213.912 83.0001 199C83.0001 194.04 84.3374 189.393 86.671 185.399L36.4842 135.212C33.0454 136.993 29.1402 138 25 138C11.1929 138 0 126.807 0 113C0 99.1928 11.1929 87.9999 25 87.9999C29.078 87.9999 32.9279 88.9763 36.3288 90.7081L88.792 38.2449C87.0098 34.8906 86.0001 31.0632 86.0001 27C86.0001 13.7452 96.7452 3 110 3C120.072 3 128.695 9.20447 132.255 17.9999H234.536C238.243 7.51323 248.244 0 260 0C274.912 0 287 12.0883 287 27C287 41.9117 274.912 54 260 54C248.244 54 238.243 46.4867 234.536 35.9999H132.256C129.82 42.0162 125.016 46.8202 119 49.2555V104H183.034C186.849 96.5786 194.582 91.5019 203.501 91.5019C216.204 91.5019 226.501 101.799 226.501 114.502C226.501 127.204 216.204 137.502 203.501 137.502C193.424 137.502 184.861 131.021 181.751 122H119V173.536C126.672 176.248 132.752 182.328 135.464 190H218.483C221.962 180.378 231.178 173.502 242 173.502C255.807 173.502 267 184.695 267 198.502C267 212.309 255.807 223.502 242 223.502C231.555 223.502 222.606 217.097 218.867 208H135.464C131.757 218.487 121.756 226 110 226ZM48.7281 122L100.461 173.733C100.539 173.704 100.617 173.675 100.696 173.646C100.797 173.609 100.898 173.572 101 173.536V122H48.7281ZM48.4928 104H101V51.4928L48.4928 104Z" fill="black"/>
<path d="M137 199C137 213.912 124.912 226 110 226C95.0884 226 83.0001 213.912 83.0001 199C83.0001 184.088 95.0883 172 110 172C124.912 172 137 184.088 137 199Z" fill="#00FF44" fill-opacity="0.33"/>
<path d="M226.501 114.502C226.501 127.204 216.204 137.502 203.501 137.502C190.799 137.502 180.501 127.204 180.501 114.502C180.501 101.799 190.799 91.5019 203.501 91.5019C216.204 91.5019 226.501 101.799 226.501 114.502Z" fill="#00FF44" fill-opacity="0.33"/>
<path d="M287 27C287 41.9117 274.912 54 260 54C245.088 54 233 41.9117 233 27C233 12.0883 245.088 0 260 0C274.912 0 287 12.0883 287 27Z" fill="#00FF44" fill-opacity="0.33"/>
<path d="M267 198.502C267 212.309 255.807 223.502 242 223.502C228.193 223.502 217 212.309 217 198.502C217 184.695 228.193 173.502 242 173.502C255.807 173.502 267 184.695 267 198.502Z" fill="#00FF44" fill-opacity="0.33"/>
<path d="M49.9999 113C49.9999 126.807 38.8071 138 25 138C11.1929 138 0 126.807 0 113C0 99.1928 11.1929 87.9999 25 87.9999C38.8071 87.9999 49.9999 99.1928 49.9999 113Z" fill="#00FF44" fill-opacity="0.33"/>
<path d="M134 27C134 40.2548 123.255 51 110 51C96.7452 51 86.0001 40.2548 86.0001 27C86.0001 13.7452 96.7452 3 110 3C123.255 3 134 13.7452 134 27Z" fill="#00FF44" fill-opacity="0.33"/>
<path d="M123.26 198.63C123.26 206.158 117.158 212.26 109.63 212.26C102.102 212.26 96 206.158 96 198.63C96 191.102 102.102 185 109.63 185C117.158 185 123.26 191.102 123.26 198.63Z" fill="#00FF44"/>
<path d="M215.222 114.611C215.222 121.023 210.023 126.222 203.611 126.222C197.198 126.222 192 121.023 192 114.611C192 108.198 197.198 103 203.611 103C210.023 103 215.222 108.198 215.222 114.611Z" fill="#00FF44"/>
<path d="M273.26 26.63C273.26 34.1577 267.158 40.2601 259.63 40.2601C252.102 40.2601 246 34.1577 246 26.63C246 19.1024 252.102 13 259.63 13C267.158 13 273.26 19.1024 273.26 26.63Z" fill="#00FF44"/>
<path d="M254.241 198.62C254.241 205.59 248.59 211.241 241.62 211.241C234.65 211.241 229 205.59 229 198.62C229 191.65 234.65 186 241.62 186C248.59 186 254.241 191.65 254.241 198.62Z" fill="#00FF44"/>
<path d="M37.2408 112.62C37.2408 119.59 31.5905 125.241 24.6204 125.241C17.6503 125.241 12 119.59 12 112.62C12 105.65 17.6503 100 24.6204 100C31.5905 100 37.2408 105.65 37.2408 112.62Z" fill="#00FF44"/>
<path d="M122.231 27.1156C122.231 33.8068 116.807 39.2312 110.116 39.2312C103.424 39.2312 98 33.8068 98 27.1156C98 20.4243 103.424 15 110.116 15C116.807 15 122.231 20.4243 122.231 27.1156Z" fill="#00FF44"/>
</svg>
